HIERARCHY
ROOT Hips
{
	OFFSET 0.000000 100.481300 0.000000
	CHANNELS 6 Xposition Yposition Zposition Xrotation Yrotation Zrotation 
	JOINT Spine
	{
		OFFSET -0.279200 12.230698 -2.892100
		CHANNELS 3 Xrotation Yrotation Zrotation
		JOINT Spine1
		{
			OFFSET -0.232667 10.192268 -1.242267
			CHANNELS 3 Xrotation Yrotation Zrotation
			JOINT Spine1_split
			{
				OFFSET -0.232667 10.192268 -1.242267
				CHANNELS 3 Xrotation Yrotation Zrotation
				JOINT Spine2
				{
					OFFSET -0.232667 10.192268 -1.242267
					CHANNELS 3 Xrotation Yrotation Zrotation
					JOINT Neck
					{
						OFFSET -0.418800 17.814194 8.416900
						CHANNELS 3 Xrotation Yrotation Zrotation
						JOINT Head
						{
							OFFSET 0.000000 7.031097 3.806800
							CHANNELS 3 Xrotation Yrotation Zrotation
							JOINT HeadTop_End
							{
								OFFSET 0.000000 24.646606 12.978600
								CHANNELS 3 Xrotation Yrotation Zrotation
								End Site
								{
									OFFSET 0.000000 0.000000 0.000000
								}
							}
						}
					}
					JOINT LeftShoulder
					{
						OFFSET 8.476499 7.247704 -3.868750
						CHANNELS 3 Xrotation Yrotation Zrotation
						JOINT LeftShoulder_split
						{
							OFFSET 8.476499 7.247704 -3.868750
							CHANNELS 3 Xrotation Yrotation Zrotation
							JOINT LeftArm
							{
								OFFSET 9.308998 -2.777710 0.208600
								CHANNELS 3 Xrotation Yrotation Zrotation
								JOINT LeftForeArm
								{
									OFFSET 29.972298 0.000000 0.000000
									CHANNELS 3 Xrotation Yrotation Zrotation
									JOINT LeftHand
									{
										OFFSET 26.026505 0.000000 0.000000
										CHANNELS 3 Xrotation Yrotation Zrotation
										JOINT LeftHandThumb1
										{
											OFFSET 12.240501 -7.147949 9.207150
											CHANNELS 3 Xrotation Yrotation Zrotation
											JOINT LeftHandThumb2
											{
												OFFSET 4.138618 -2.389435 2.389433
												CHANNELS 3 Xrotation Yrotation Zrotation
												JOINT LeftHandThumb3
												{
													OFFSET 2.726913 -1.574387 1.574386
													CHANNELS 3 Xrotation Yrotation Zrotation
													JOINT LeftHandThumb4
													{
														OFFSET 3.941010 -2.275345 2.275342
														CHANNELS 3 Xrotation Yrotation Zrotation
														End Site
														{
															OFFSET 0.000000 0.000000 0.000000
														}
													}
												}
											}
										}
										JOINT LeftHandIndex1
										{
											OFFSET 24.424698 -1.985611 5.953459
											CHANNELS 3 Xrotation Yrotation Zrotation
											JOINT LeftHandIndex2
											{
												OFFSET 6.426697 0.000000 0.000000
												CHANNELS 3 Xrotation Yrotation Zrotation
												JOINT LeftHandIndex3
												{
													OFFSET 5.337898 0.000000 0.000000
													CHANNELS 3 Xrotation Yrotation Zrotation
													JOINT LeftHandIndex4
													{
														OFFSET 4.409401 0.000000 0.000000
														CHANNELS 3 Xrotation Yrotation Zrotation
														End Site
														{
															OFFSET 0.000000 0.000000 0.000000
														}
													}
												}
											}
										}
										JOINT LeftHandMiddle1
										{
											OFFSET 23.810104 0.000000 0.000000
											CHANNELS 3 Xrotation Yrotation Zrotation
											JOINT LeftHandMiddle2
											{
												OFFSET 7.176498 0.000000 0.000000
												CHANNELS 3 Xrotation Yrotation Zrotation
												JOINT LeftHandMiddle3
												{
													OFFSET 6.774902 0.000000 0.000000
													CHANNELS 3 Xrotation Yrotation Zrotation
													JOINT LeftHandMiddle4
													{
														OFFSET 5.403328 0.000000 0.000000
														CHANNELS 3 Xrotation Yrotation Zrotation
														End Site
														{
															OFFSET 0.000000 0.000000 0.000000
														}
													}
												}
											}
										}
										JOINT LeftHandRing1
										{
											OFFSET 22.908401 -0.839279 -6.020567
											CHANNELS 3 Xrotation Yrotation Zrotation
											JOINT LeftHandRing2
											{
												OFFSET 6.337502 0.000000 0.000000
												CHANNELS 3 Xrotation Yrotation Zrotation
												JOINT LeftHandRing3
												{
													OFFSET 5.779297 0.000000 0.000000
													CHANNELS 3 Xrotation Yrotation Zrotation
													JOINT LeftHandRing4
													{
														OFFSET 4.965698 0.000000 0.000000
														CHANNELS 3 Xrotation Yrotation Zrotation
														End Site
														{
															OFFSET 0.000000 0.000000 0.000000
														}
													}
												}
											}
										}
										JOINT LeftHandPinky1
										{
											OFFSET 20.037003 -1.530319 -10.950146
											CHANNELS 3 Xrotation Yrotation Zrotation
											JOINT LeftHandPinky2
											{
												OFFSET 5.254700 0.000000 0.000000
												CHANNELS 3 Xrotation Yrotation Zrotation
												JOINT LeftHandPinky3
												{
													OFFSET 4.810204 0.000000 0.000000
													CHANNELS 3 Xrotation Yrotation Zrotation
													JOINT LeftHandPinky4
													{
														OFFSET 3.647202 0.000000 0.000000
														CHANNELS 3 Xrotation Yrotation Zrotation
														End Site
														{
															OFFSET 0.000000 0.000000 0.000000
														}
													}
												}
											}
										}
									}
								}
							}
						}
					}
					JOINT RightShoulder
					{
						OFFSET -7.570500 7.247704 -3.868750
						CHANNELS 3 Xrotation Yrotation Zrotation
						JOINT RightShoulder_split
						{
							OFFSET -7.570500 7.247704 -3.868750
							CHANNELS 3 Xrotation Yrotation Zrotation
							JOINT RightArm
							{
								OFFSET -9.308998 -2.777710 0.208500
								CHANNELS 3 Xrotation Yrotation Zrotation
								JOINT RightForeArm
								{
									OFFSET -29.972300 0.000000 0.000000
									CHANNELS 3 Xrotation Yrotation Zrotation
									JOINT RightHand
									{
										OFFSET -26.026505 0.000000 0.000000
										CHANNELS 3 Xrotation Yrotation Zrotation
										JOINT RightHandThumb1
										{
											OFFSET -12.240601 -7.148026 9.207092
											CHANNELS 3 Xrotation Yrotation Zrotation
											JOINT RightHandThumb2
											{
												OFFSET -4.138618 -2.389435 2.389433
												CHANNELS 3 Xrotation Yrotation Zrotation
												JOINT RightHandThumb3
												{
													OFFSET -2.726974 -1.574417 1.574421
													CHANNELS 3 Xrotation Yrotation Zrotation
													JOINT RightHandThumb4
													{
														OFFSET -3.941010 -2.275345 2.275343
														CHANNELS 3 Xrotation Yrotation Zrotation
														End Site
														{
															OFFSET 0.000000 0.000000 0.000000
														}
													}
												}
											}
										}
										JOINT RightHandIndex1
										{
											OFFSET -24.424698 -1.985657 5.953444
											CHANNELS 3 Xrotation Yrotation Zrotation
											JOINT RightHandIndex2
											{
												OFFSET -6.426697 0.000000 0.000000
												CHANNELS 3 Xrotation Yrotation Zrotation
												JOINT RightHandIndex3
												{
													OFFSET -5.337898 0.000000 0.000000
													CHANNELS 3 Xrotation Yrotation Zrotation
													JOINT RightHandIndex4
													{
														OFFSET -4.409401 0.000000 0.000000
														CHANNELS 3 Xrotation Yrotation Zrotation
														End Site
														{
															OFFSET 0.000000 0.000000 0.000000
														}
													}
												}
											}
										}
										JOINT RightHandMiddle1
										{
											OFFSET -23.810097 0.000000 0.000000
											CHANNELS 3 Xrotation Yrotation Zrotation
											JOINT RightHandMiddle2
											{
												OFFSET -7.176498 0.000000 0.000000
												CHANNELS 3 Xrotation Yrotation Zrotation
												JOINT RightHandMiddle3
												{
													OFFSET -6.774902 0.000000 0.000000
													CHANNELS 3 Xrotation Yrotation Zrotation
													JOINT RightHandMiddle4
													{
														OFFSET -5.403328 0.000000 0.000000
														CHANNELS 3 Xrotation Yrotation Zrotation
														End Site
														{
															OFFSET 0.000000 0.000000 0.000000
														}
													}
												}
											}
										}
										JOINT RightHandRing1
										{
											OFFSET -22.908302 -0.839325 -6.020576
											CHANNELS 3 Xrotation Yrotation Zrotation
											JOINT RightHandRing2
											{
												OFFSET -6.337502 0.000000 0.000000
												CHANNELS 3 Xrotation Yrotation Zrotation
												JOINT RightHandRing3
												{
													OFFSET -5.779297 0.000000 0.000000
													CHANNELS 3 Xrotation Yrotation Zrotation
													JOINT RightHandRing4
													{
														OFFSET -4.965698 0.000000 0.000000
														CHANNELS 3 Xrotation Yrotation Zrotation
														End Site
														{
															OFFSET 0.000000 0.000000 0.000000
														}
													}
												}
											}
										}
										JOINT RightHandPinky1
										{
											OFFSET -20.037003 -1.530334 -10.950259
											CHANNELS 3 Xrotation Yrotation Zrotation
											JOINT RightHandPinky2
											{
												OFFSET -5.254700 0.000000 0.000000
												CHANNELS 3 Xrotation Yrotation Zrotation
												JOINT RightHandPinky3
												{
													OFFSET -4.810204 0.000000 0.000000
													CHANNELS 3 Xrotation Yrotation Zrotation
													JOINT RightHandPinky4
													{
														OFFSET -3.647202 0.000000 0.000000
														CHANNELS 3 Xrotation Yrotation Zrotation
														End Site
														{
															OFFSET 0.000000 0.000000 0.000000
														}
													}
												}
											}
										}
									}
								}
							}
						}
					}
				}
			}
		}
	}
	JOINT LeftUpLeg
	{
		OFFSET 15.427100 -6.655098 0.678600
		CHANNELS 3 Xrotation Yrotation Zrotation
		JOINT LeftLeg
		{
			OFFSET 4.081073 -39.591068 13.024000
			CHANNELS 3 Xrotation Yrotation Zrotation
			JOINT LeftFoot
			{
				OFFSET -4.081074 -37.707932 -15.979700
				CHANNELS 3 Xrotation Yrotation Zrotation
				JOINT LeftToeBase
				{
					OFFSET 5.346399 -15.068900 20.645000
					CHANNELS 3 Xrotation Yrotation Zrotation
					JOINT LeftToe_End
					{
						OFFSET 2.754700 0.931300 11.300900
						CHANNELS 3 Xrotation Yrotation Zrotation
						End Site
						{
							OFFSET 0.000000 0.000000 0.000000
						}
					}
				}
			}
		}
	}
	JOINT RightUpLeg
	{
		OFFSET -15.569500 -6.655098 0.678600
		CHANNELS 3 Xrotation Yrotation Zrotation
		JOINT RightLeg
		{
			OFFSET -4.081825 -39.591045 13.023800
			CHANNELS 3 Xrotation Yrotation Zrotation
			JOINT RightFoot
			{
				OFFSET 4.081824 -37.707954 -15.979600
				CHANNELS 3 Xrotation Yrotation Zrotation
				JOINT RightToeBase
				{
					OFFSET -5.346400 -15.068900 20.645000
					CHANNELS 3 Xrotation Yrotation Zrotation
					JOINT RightToe_End
					{
						OFFSET -2.754700 0.931300 11.300900
						CHANNELS 3 Xrotation Yrotation Zrotation
						End Site
						{
							OFFSET 0.000000 0.000000 0.000000
						}
					}
				}
			}
		}
	}
}
MOTION
Frames: 4
Frame Time: 0.016667
-1.985198 81.679237 13.759338 -23.074841 -5.180712 -2.505299 7.701530 -1.335425 0.371551 15.374075 -1.676406 -0.551058 0.000000 0.000000 0.000000 15.374075 -1.676402 -0.551059 -11.803034 2.538408 0.513533 -20.543587 1.060034 1.922751 -0.000001 0.000000 0.000000 -0.117971 -1.799433 36.289430 0.000000 0.000000 0.000000 -52.783217 -25.523879 -11.661696 -14.599480 -27.801868 2.187903 12.414552 -2.032473 43.220460 -11.360182 -10.015386 28.397691 19.621107 23.755277 -10.341694 -0.000006 0.000004 -0.000004 0.000001 0.000000 -0.000001 -7.847196 -3.444990 -67.091220 -4.891787 2.725212 -36.316478 -0.000000 0.000000 -0.000000 0.000000 -0.000000 -0.000001 -10.129919 -3.870848 -67.774273 -1.764497 1.724494 -28.158835 0.000000 0.000012 -0.000001 0.000000 -0.000001 0.000000 -15.177613 7.295118 -70.201641 7.766215 -0.421203 -31.520056 -0.000000 0.000005 0.000003 0.000000 0.000000 -0.000000 -16.484525 5.444192 -74.872595 8.342034 -0.189850 -18.882666 0.000001 -0.000000 0.000001 -0.000000 -0.000001 -0.000000 9.813670 24.196312 -37.946059 0.000000 0.000000 0.000000 -46.242184 23.161317 -4.673688 -22.075469 26.224113 3.020030 0.654831 10.544270 -45.154599 15.333573 1.500918 -10.491450 -10.396766 -3.067653 -10.223929 0.000003 -0.000005 0.000001 0.000000 -0.000000 -0.000000 0.919878 3.496423 64.452192 1.728446 9.563293 38.865969 -0.000001 -0.000001 0.000001 0.000000 -0.000001 -0.000001 -6.652407 -3.924334 64.485715 9.406008 5.988789 38.253649 0.000000 -0.000000 0.000000 0.000001 -0.000001 -0.000003 -5.546317 1.390179 64.784795 0.228428 -1.796021 39.151607 0.000000 0.000000 -0.000002 0.000000 -0.000001 -0.000001 -17.806351 -16.572305 61.043306 25.318647 3.855948 27.748798 -0.000000 -0.000014 0.000002 -0.000000 -0.000001 -0.000000 -91.542232 19.310553 27.779119 122.391553 -11.588358 6.413890 -31.133416 -4.771323 13.581456 -46.495294 -2.668696 -1.962211 0.000002 -0.000001 -0.000001 -128.081948 -24.207382 -12.907331 125.245971 -10.771727 -18.601332 -9.765199 -6.621417 13.548232 -38.850164 6.007503 10.674978 -0.000000 0.000001 -0.000000 
-2.007717 81.451225 13.863335 -22.790523 -5.170103 -2.523157 7.650809 -1.296403 0.420290 15.273326 -1.606446 -0.492266 0.000000 0.000000 0.000000 15.273329 -1.606442 -0.492267 -14.761857 2.627877 0.599233 -18.644391 1.325022 1.660059 0.000002 0.000000 -0.000000 -0.463118 -1.070546 36.646106 0.000000 0.000000 0.000000 -52.830858 -25.294853 -12.145895 -14.734627 -28.465350 2.458218 11.791896 -2.162965 40.907601 -11.360215 -10.015403 28.397691 19.621117 23.755249 -10.341689 -0.000007 0.000004 -0.000003 0.000000 0.000001 0.000000 -7.847207 -3.445012 -67.091220 -4.891820 2.725213 -36.316485 0.000000 0.000000 -0.000000 0.000000 0.000000 0.000000 -10.129906 -3.870884 -67.774280 -1.764529 1.724331 -28.158828 -0.000001 0.000015 0.000002 0.000001 0.000000 0.000000 -15.177618 7.295065 -70.201661 7.766216 -0.421199 -31.520059 -0.000001 0.000005 -0.000001 -0.000000 -0.000000 0.000000 -16.484525 5.444088 -74.872595 8.341966 -0.189772 -18.882678 -0.000001 0.000002 -0.000001 -0.000000 0.000001 -0.000001 9.574051 23.264854 -38.203434 0.000000 0.000000 0.000000 -46.458178 23.286056 -4.045075 -21.711682 26.550147 2.475548 0.014063 10.416168 -45.533319 15.333561 1.500910 -10.491458 -10.396766 -3.067653 -10.223928 0.000003 -0.000005 0.000002 -0.000000 -0.000000 0.000002 0.919890 3.496424 64.452179 1.728505 9.563336 38.865959 -0.000001 0.000001 0.000003 0.000000 -0.000000 0.000001 -6.652429 -3.924343 64.485687 9.406018 5.988765 38.253639 0.000001 -0.000001 0.000001 0.000001 0.000003 0.000001 -5.546322 1.390165 64.784788 0.228520 -1.795948 39.151611 0.000000 0.000000 0.000001 0.000001 -0.000000 -0.000000 -17.806363 -16.572296 61.043299 25.318804 3.856023 27.748765 -0.000001 -0.000012 0.000002 -0.000000 0.000000 -0.000000 -92.017620 19.180993 27.551487 122.677642 -11.306743 6.473763 -31.547244 -4.690024 13.379849 -46.287314 -2.741855 -2.033683 0.000002 0.000001 -0.000000 -128.215519 -24.242450 -12.048739 125.396454 -11.033027 -18.737437 -10.192077 -6.958334 14.152032 -38.486777 5.776735 10.443122 -0.000001 0.000000 0.000000 
-2.037271 81.314606 13.958710 -22.392994 -5.144197 -2.546543 7.533386 -1.259590 0.467649 15.039636 -1.534572 -0.418301 0.000000 0.000000 0.000000 15.039639 -1.534572 -0.418302 -17.769912 2.710621 0.790330 -16.597925 1.605600 1.335111 0.000002 -0.000000 0.000000 -0.794089 -0.411283 37.037650 0.000000 0.000000 0.000000 -53.107344 -25.119629 -13.105107 -14.758171 -28.996694 2.732919 11.472789 -2.333852 38.824636 -11.360198 -10.015417 28.397707 19.621119 23.755273 -10.341703 -0.000007 0.000001 -0.000006 0.000000 0.000000 -0.000002 -7.847216 -3.444994 -67.091220 -4.891849 2.725236 -36.316481 0.000001 -0.000000 -0.000001 0.000000 -0.000000 -0.000002 -10.129900 -3.870907 -67.774266 -1.764545 1.724214 -28.158824 -0.000002 0.000013 -0.000001 0.000001 -0.000001 -0.000000 -15.177577 7.295033 -70.201641 7.766212 -0.421211 -31.520053 -0.000002 0.000005 -0.000002 0.000000 0.000001 0.000000 -16.484504 5.444010 -74.872575 8.341898 -0.189689 -18.882685 0.000000 0.000001 -0.000001 -0.000001 0.000000 -0.000002 9.273468 22.311037 -38.387897 0.000000 0.000000 0.000000 -46.870899 23.501718 -2.942157 -21.212585 27.007456 1.920310 -0.431558 10.107016 -45.634854 15.333568 1.500913 -10.491434 -10.396767 -3.067652 -10.223931 0.000004 -0.000006 0.000000 -0.000000 -0.000000 0.000002 0.919885 3.496452 64.452199 1.728566 9.563378 38.865952 0.000001 0.000001 0.000001 0.000000 -0.000002 -0.000001 -6.652421 -3.924341 64.485701 9.406014 5.988771 38.253622 0.000001 0.000000 0.000001 0.000000 0.000001 0.000000 -5.546330 1.390166 64.784802 0.228576 -1.795845 39.151607 -0.000001 0.000000 -0.000000 -0.000000 -0.000001 -0.000000 -17.806375 -16.572300 61.043334 25.318977 3.856096 27.748765 -0.000002 -0.000013 0.000002 0.000000 0.000003 -0.000000 -92.473535 18.896693 27.335397 122.867481 -11.101600 6.438180 -31.778562 -4.608536 13.221691 -46.159795 -2.756068 -2.168694 -0.000001 0.000001 -0.000000 -128.343230 -24.050001 -11.421409 125.504753 -11.082008 -18.688516 -10.476017 -7.162480 14.518474 -38.305412 5.515454 10.350254 -0.000001 -0.000001 0.000002 
-2.071988 81.254532 14.053249 -21.922597 -5.115462 -2.577985 7.368325 -1.226143 0.514368 14.710908 -1.463378 -0.331661 0.000000 0.000000 0.000000 14.710904 -1.463382 -0.331661 -20.744669 2.780006 1.039820 -14.458343 1.885081 0.975406 -0.000002 0.000000 0.000000 -1.099284 0.158972 37.454200 0.000000 0.000000 0.000000 -53.530484 -24.931224 -14.399208 -14.700102 -29.457896 3.027314 11.402005 -2.529876 36.882694 -11.360190 -10.015377 28.397693 19.621102 23.755244 -10.341689 -0.000006 0.000002 -0.000006 0.000000 -0.000002 -0.000001 -7.847227 -3.444983 -67.091227 -4.891878 2.725268 -36.316471 0.000000 -0.000000 -0.000001 -0.000000 0.000000 -0.000000 -10.129889 -3.870915 -67.774294 -1.764575 1.724058 -28.158811 -0.000001 0.000013 0.000002 0.000000 -0.000000 -0.000001 -15.177584 7.295016 -70.201647 7.766220 -0.421207 -31.520059 -0.000000 0.000004 -0.000001 0.000001 -0.000002 -0.000000 -16.484479 5.443947 -74.872616 8.341833 -0.189621 -18.882695 0.000000 0.000001 0.000001 0.000001 0.000000 -0.000000 8.958987 21.389436 -38.537140 0.000000 0.000000 0.000000 -47.400830 23.753711 -1.536023 -20.640010 27.551682 1.343277 -0.735291 9.715916 -45.379036 15.333560 1.500911 -10.491465 -10.396766 -3.067654 -10.223927 0.000003 -0.000006 0.000003 -0.000000 -0.000000 0.000002 0.919906 3.496455 64.452179 1.728612 9.563443 38.865942 -0.000001 0.000001 0.000001 0.000000 -0.000001 0.000000 -6.652419 -3.924335 64.485701 9.406006 5.988781 38.253646 0.000001 0.000000 0.000000 -0.000001 -0.000001 0.000001 -5.546324 1.390156 64.784788 0.228681 -1.795789 39.151618 0.000000 0.000001 -0.000001 -0.000000 -0.000000 -0.000002 -17.806387 -16.572295 61.043313 25.319137 3.856170 27.748770 -0.000002 -0.000012 0.000002 -0.000001 0.000003 -0.000000 -92.905831 18.467435 27.148547 122.978485 -10.966703 6.320829 -31.818228 -4.514948 13.083223 -46.170952 -2.734062 -2.361639 -0.000003 -0.000001 0.000000 -128.484956 -23.680602 -10.978695 125.580213 -10.978245 -18.500607 -10.597913 -7.251981 14.715390 -38.304753 5.237348 10.376536 -0.000000 0.000001 0.000001 
